<svg width="299" height="340" viewBox="0 0 299 340" fill="none" xmlns="http://www.w3.org/2000/svg">
    <path d="M5.91121 324.076C5.91121 324.076 3.64391 327.683 3.07399 337.782C3.02079 338.723 3.75907 339.525 4.69266 339.525H22.4236C23.1371 339.525 23.6458 338.818 23.4177 338.137C22.3784 335.032 19.2373 327.465 12.2277 323.141L5.91121 324.076Z" fill="url(#paint0_linear_0_1)"/>
    <path d="M5.1416 317.233L6.14445 325.72C6.23118 326.452 6.79961 327.038 7.5255 327.123C8.49553 327.236 9.90505 327.315 11.2745 327.087C12.52 326.88 13.4157 325.76 13.4157 324.487V316.292L5.1416 317.233Z" fill="url(#paint1_linear_0_1)"/>
    <path d="M49.7813 323.141C49.7813 323.141 46.3873 328.465 46.4601 335.773C46.4769 337.494 47.9053 338.865 49.6107 338.865H77.1491C78.4383 338.865 78.9623 337.193 77.907 336.445C72.6961 332.752 62.4536 325.852 55.0461 323.141H49.7813Z" fill="url(#paint2_linear_0_1)"/>
    <path d="M46.9463 313.973L49.0853 324.455C49.3244 325.628 50.4613 326.416 51.6186 326.155C52.3226 325.997 53.1527 325.693 54.0397 325.133C54.8829 324.602 55.31 323.589 55.138 322.601L52.9253 309.901L46.9463 313.973Z" fill="url(#paint3_linear_0_1)"/>
    <path d="M9.07045 168.232C9.07045 168.232 1.63231 174.851 0.233014 182.813C-1.16701 190.776 4.19914 320.199 4.19914 320.199C4.19914 320.199 11.6365 321.448 15.4707 319.103C15.4707 319.103 20.0184 235.109 23.4744 215.699C23.4744 215.699 41.601 302.707 46.6239 318.428C46.6239 318.428 53.7895 319.308 56.0998 317.931C56.0998 317.931 51.3516 205.146 45.3849 185.094L9.07045 168.232Z" fill="url(#paint4_linear_0_1)"/>
    <path d="M23.2585 212.95C22.908 212.95 22.588 212.713 22.4955 212.355L19.4134 200.422L12.8476 196.171C12.481 195.934 12.3739 195.441 12.6093 195.071C12.8447 194.701 13.3337 194.592 13.6996 194.831L20.5255 199.251C20.6924 199.359 20.8134 199.526 20.863 199.719L24.0223 211.952C24.1323 212.379 23.8795 212.814 23.4575 212.925C23.3912 212.942 23.3241 212.95 23.2585 212.95Z" fill="#666694"/>
    <path d="M82.4682 93.4478C51.1576 90.8239 42.9746 97.3641 42.9746 97.3641L58.0214 121.34C58.0214 121.34 88.7868 120.727 110.832 103.577C106.706 99.092 103.84 94.1363 102.003 90.2773C96.3182 92.6622 89.7715 94.0598 82.4682 93.4478Z" fill="url(#paint5_linear_0_1)"/>
    <path d="M131.498 47.0591C131.456 46.0462 130.096 45.771 129.671 46.6883L125.675 55.2934C124.903 56.9558 124.656 58.8176 124.966 60.6272L126.368 65.6359C126.787 68.0781 126.155 70.5806 124.621 72.5167C120.95 77.1488 113.131 85.6089 102.001 90.277C103.838 94.136 106.704 99.0924 110.83 103.577C118.919 97.2843 125.835 88.7683 129.624 77.2356C131.439 76.6728 132.653 74.9471 132.581 73.0316L131.498 47.0591Z" fill="url(#paint6_linear_0_1)"/>
    <path d="M92.7751 107.348C81.7528 95.36 60.7575 89.9438 48.6019 87.7194C43.2766 86.7447 38.0271 89.7356 36.1402 94.8554C30.6698 109.698 15.7922 148.311 12.9091 154.948C10.5434 160.392 8.07276 165.71 6.50365 169.035C5.56569 171.021 6.38558 173.398 8.34896 174.352C18.5762 179.328 36.9783 184.958 44.439 187.153C46.0803 187.637 47.7143 186.393 47.7143 184.668C47.7143 183.205 48.1085 181.769 48.8541 180.514L77.1089 132.99C94.7196 152.699 110.142 154.501 121.99 150.187C119.999 143.973 118.695 137.747 118.07 131.51C100.565 128.483 92.7751 107.348 92.7751 107.348Z" fill="url(#paint7_linear_0_1)"/>
    <path d="M146.998 128.204L143.839 123.953C133.613 131.041 125.065 132.721 118.068 131.511C118.693 137.749 119.997 143.975 121.989 150.189C137.597 144.506 146.998 128.204 146.998 128.204Z" fill="url(#paint8_linear_0_1)"/>
    <path d="M144.77 128.28L162.565 128.98L178.949 119.744C176.598 118.256 163.298 121.297 163.298 121.297C163.298 121.297 149.394 119.175 145.632 119.17C142.507 119.166 142.953 123.702 143.194 125.239C143.243 125.553 143.284 125.742 143.284 125.742L144.77 128.28Z" fill="url(#paint9_linear_0_1)"/>
    <path d="M65.3212 65.7041L55.9321 88.8299C55.9321 88.8299 66.7205 96.3668 75.3998 95.6496L80.0859 74.8557L65.3212 65.7041Z" fill="url(#paint10_linear_0_1)"/>
    <path d="M84.7584 47.5791C84.7584 47.5791 90.564 61.0391 90.9532 68.1038C91.3431 75.1685 92.851 79.7528 84.7584 81.1754C76.6651 82.598 69.8472 78.5287 66.1537 71.4912C66.1537 71.4912 60.3663 60.6478 61.665 56.207C62.963 51.7661 84.7584 47.5791 84.7584 47.5791Z" fill="url(#paint11_linear_0_1)"/>
    <path d="M68.9206 66.4318L69.3812 66.2266C69.9679 65.9655 70.2186 65.2608 69.9242 64.6863C68.7829 62.4603 66.5579 57.3604 69.4322 56.171C73.136 54.638 87.8081 51.6176 90.974 46.3632C94.0168 41.3126 91.3209 34.7937 87.2696 32.94C86.9984 32.8157 86.6785 32.9143 86.5401 33.1798L86.2026 33.8242C85.9716 34.2655 85.3258 34.1986 85.1881 33.719C85.0562 33.2585 84.4491 33.1695 84.1977 33.5756C83.2247 35.1475 80.5974 37.6964 73.5725 39.005C63.588 40.8646 56.9873 44.9428 56.8226 51.9067C56.8124 52.3488 56.3459 52.5952 55.9713 52.365C55.2338 51.9118 54.0546 51.6985 52.4775 53.0366C49.7357 55.364 50.8574 61.4003 56.8685 66.3656C57.1542 66.6018 57.152 67.0512 56.8422 67.255C55.7527 67.9707 54.1282 69.6744 58.337 71.9459C62.6909 74.2947 65.942 74.1019 67.1941 73.8938C67.5053 73.8415 67.7065 73.5377 67.6387 73.2265L66.3028 67.1064C66.227 66.7599 66.4886 66.4318 66.8399 66.4318H68.9206Z" fill="url(#paint12_linear_0_1)"/>
    <path d="M69.1716 67.7219C69.1716 67.7219 66.9568 59.1242 63.1379 61.5347C59.319 63.9453 65.1195 71.1682 68.1899 71.4904L69.1716 67.7219Z" fill="url(#paint13_linear_0_1)"/>
    <path d="M287.642 121.525L151.417 120.806C145.895 120.777 141.303 116.352 140.815 110.591L132.747 15.1499C132.198 8.6538 137.04 3.03633 143.267 2.94484L288.092 0.822159C294.083 0.73421 298.973 5.81297 298.939 12.0881L298.406 110.371C298.372 116.563 293.553 121.556 287.642 121.525Z" fill="url(#paint14_linear_0_1)"/>
    <path opacity="0.87" d="M141.408 23.6985L147.05 106.22C147.295 109.805 150.115 112.597 153.546 112.653L284.283 114.778C287.966 114.838 290.989 111.738 291.01 107.881L291.492 19.0723C291.513 15.1505 288.427 11.9933 284.684 12.1071L147.823 16.2686C144.057 16.3831 141.139 19.7626 141.408 23.6985Z" fill="white"/>
    <g clip-path="url(#clip0_0_1)">
        <g filter="url(#filter0_d_0_1)">
            <path d="M325.996 95.9678H236.992C233.77 95.9678 231.157 98.2845 231.157 101.142V113.603C231.157 116.46 233.77 118.777 236.992 118.777H325.996C329.219 118.777 331.831 116.46 331.831 113.603V101.142C331.831 98.2845 329.219 95.9678 325.996 95.9678Z" fill="white"/>
            <path d="M243.024 110.878C245.209 110.878 246.979 109.308 246.979 107.371C246.979 105.434 245.209 103.863 243.024 103.863C240.84 103.863 239.069 105.434 239.069 107.371C239.069 109.308 240.84 110.878 243.024 110.878Z" fill="#4285F5"/>
            <mask id="mask0_0_1" style="mask-type:luminance" maskUnits="userSpaceOnUse" x="240" y="105" width="6" height="5">
                <path d="M240.719 105.325H245.336V109.42H240.719V105.325Z" fill="white"/>
            </mask>
            <g mask="url(#mask0_0_1)">
                <path d="M243.462 109.417C243.132 109.417 242.892 109.347 242.741 109.207C242.6 109.087 242.519 108.924 242.514 108.752C242.513 108.7 242.526 108.648 242.554 108.602C242.58 108.562 242.617 108.528 242.662 108.506C242.768 108.459 242.893 108.459 242.999 108.506C243.044 108.528 243.081 108.562 243.107 108.602C243.135 108.648 243.149 108.699 243.148 108.752C243.151 108.815 243.13 108.876 243.09 108.928C243.056 108.97 243.008 109.001 242.953 109.017C243.007 109.078 243.083 109.12 243.169 109.136C243.265 109.161 243.364 109.174 243.464 109.174C243.596 109.175 243.726 109.141 243.835 109.075C243.949 109.004 244.034 108.902 244.078 108.784C244.132 108.645 244.16 108.497 244.157 108.349C244.161 108.195 244.132 108.041 244.07 107.897C244.024 107.781 243.936 107.682 243.82 107.615C243.712 107.555 243.587 107.523 243.46 107.523C243.348 107.532 243.242 107.564 243.148 107.618L242.916 107.72V107.618L243.956 106.38H242.514V107.664C242.51 107.757 242.538 107.849 242.593 107.927C242.648 107.997 242.74 108.036 242.836 108.03C242.923 108.029 243.007 108.002 243.075 107.955C243.153 107.904 243.221 107.843 243.276 107.772C243.281 107.76 243.29 107.749 243.302 107.742C243.311 107.734 243.324 107.73 243.336 107.73C243.362 107.732 243.385 107.741 243.404 107.756C243.428 107.779 243.442 107.811 243.441 107.843C243.438 107.864 243.434 107.886 243.428 107.907C243.377 108.017 243.291 108.111 243.181 108.179C243.078 108.24 242.957 108.273 242.834 108.272C242.522 108.272 242.305 108.218 242.185 108.109C242.06 107.987 241.996 107.826 242.006 107.661V106.38H241.272V106.141H242.01V105.597L241.841 105.447V105.325H242.33L242.514 105.41V106.141L244.419 106.136L244.609 106.305L243.441 107.346C243.512 107.32 243.586 107.305 243.661 107.299C243.812 107.304 243.957 107.341 244.088 107.406C244.24 107.47 244.367 107.571 244.456 107.698C244.536 107.804 244.592 107.923 244.622 108.049C244.647 108.147 244.66 108.248 244.661 108.349C244.662 108.542 244.613 108.733 244.518 108.906C244.427 109.074 244.274 109.209 244.085 109.29C243.891 109.374 243.678 109.418 243.462 109.417Z" fill="white"/>
            </g>
            <path d="M251.394 106.497V104.536H252.2V104.178H250.123V104.536H250.927V106.497H251.394ZM253.063 105.02C253.334 105.02 253.511 105.187 253.52 105.447H252.587C252.607 105.19 252.795 105.02 253.063 105.02ZM253.523 106.013C253.458 106.143 253.304 106.215 253.081 106.215C252.786 106.215 252.596 106.032 252.585 105.74V105.719H253.969V105.59C253.969 105.036 253.631 104.703 253.065 104.703C252.491 104.703 252.134 105.059 252.134 105.624C252.134 106.19 252.485 106.532 253.069 106.532C253.536 106.532 253.868 106.333 253.95 106.013H253.523ZM254.316 106.497H255.921V106.175H254.89V106.148L255.905 105.01V104.738H254.325V105.06H255.368V105.087L254.316 106.248V106.497ZM257.171 106.532C257.764 106.532 258.125 106.188 258.125 105.618C258.125 105.049 257.762 104.703 257.171 104.703C256.583 104.703 256.219 105.05 256.219 105.618C256.219 106.188 256.577 106.532 257.171 106.532ZM257.171 106.198C256.858 106.198 256.679 105.985 256.679 105.618C256.679 105.251 256.858 105.037 257.171 105.037C257.483 105.037 257.662 105.251 257.662 105.618C257.662 105.985 257.485 106.198 257.171 106.198ZM258.473 105.242C258.473 105.507 258.652 105.663 259.033 105.74L259.384 105.812C259.573 105.849 259.658 105.912 259.658 106.011C259.658 106.141 259.5 106.23 259.274 106.23C259.049 106.23 258.91 106.152 258.866 106.023H258.422C258.456 106.342 258.768 106.532 259.263 106.532C259.758 106.532 260.107 106.307 260.107 105.97C260.107 105.711 259.931 105.566 259.553 105.491L259.203 105.42C259.004 105.38 258.91 105.319 258.91 105.219C258.91 105.092 259.063 105.005 259.268 105.005C259.478 105.005 259.611 105.084 259.643 105.208H260.066C260.033 104.888 259.737 104.703 259.267 104.703C258.799 104.703 258.473 104.923 258.473 105.242Z" fill="#565A75"/>
            <path d="M250.095 110.88H250.416L251.02 110.088H251.045L251.639 110.88H251.978L251.21 109.881L251.995 108.871H251.673L251.067 109.67H251.042L250.445 108.871H250.105L250.871 109.87L250.095 110.88ZM253.278 110.88V109.097H254.008V108.871H252.265V109.097H252.995V110.88H253.278ZM254.362 110.88H256.038V110.655H254.734V110.633L256.011 109.05V108.871H254.406V109.097H255.645V109.119L254.362 110.702V110.88Z" fill="#C4C6D4"/>
            <path d="M276.669 103.863L277.282 106.062H278.551L279.608 107.48L280.454 108.047L281.511 110.883L282.569 109.181H283.415L285.107 106.629H286.587L287.644 104.927L289.547 106.629L293.336 104.927L296.954 107.139" stroke="#FF497D" stroke-width="1.17079" stroke-linecap="round" stroke-linejoin="round"/>
            <g style="mix-blend-mode:darken">
                <path d="M325.996 95.749H236.992C233.633 95.749 230.91 98.1639 230.91 101.143V113.603C230.91 116.582 233.633 118.997 236.992 118.997H325.996C329.355 118.997 332.078 116.582 332.078 113.603V101.143C332.078 98.1639 329.355 95.749 325.996 95.749Z" stroke="#0D3CF1" stroke-opacity="0.6" stroke-width="1.16995"/>
            </g>
        </g>
        <g filter="url(#filter1_d_0_1)">
            <path d="M252.333 77.1152H163.329C160.107 77.1152 157.494 79.432 157.494 82.2899V94.7501C157.494 97.6079 160.107 99.9247 163.329 99.9247H252.333C255.556 99.9247 258.168 97.6079 258.168 94.7501V82.2899C258.168 79.432 255.556 77.1152 252.333 77.1152Z" fill="white"/>
            <path d="M169.361 92.0255C171.546 92.0255 173.316 90.4552 173.316 88.5181C173.316 86.5811 171.546 85.0107 169.361 85.0107C167.177 85.0107 165.406 86.5811 165.406 88.5181C165.406 90.4552 167.177 92.0255 169.361 92.0255Z" fill="url(#paint15_linear_0_1)"/>
            <path fill-rule="evenodd" clip-rule="evenodd" d="M167.533 88.1654H170.695C170.735 88.1654 170.773 88.1795 170.8 88.2045L171.3 88.6516C171.392 88.7341 171.327 88.8748 171.196 88.8748H168.033C167.994 88.8748 167.956 88.8608 167.929 88.8358L167.429 88.389C167.336 88.3062 167.402 88.1654 167.533 88.1654ZM167.429 87.5727L167.929 87.1259C167.957 87.1009 167.995 87.0869 168.033 87.0869H171.195C171.326 87.0869 171.392 87.2276 171.299 87.3101L170.8 87.7573C170.772 87.7823 170.734 87.7963 170.695 87.7963H167.533C167.402 87.7963 167.336 87.6556 167.429 87.5727ZM171.299 89.4676L170.799 89.9147C170.771 89.9393 170.734 89.9533 170.695 89.9533H167.533C167.402 89.9533 167.336 89.8126 167.429 89.7302L167.929 89.283C167.957 89.258 167.995 89.2444 168.033 89.2444H171.195C171.326 89.2444 171.392 89.3851 171.299 89.4676Z" fill="white"/>
            <path d="M176.494 87.0137C176.517 87.4346 176.914 87.7016 177.514 87.7016C178.148 87.7016 178.541 87.4201 178.541 86.9685C178.541 86.6151 178.318 86.4192 177.787 86.3131L177.486 86.2521C177.162 86.1864 177.03 86.0947 177.03 85.9387C177.03 85.7414 177.229 85.6125 177.53 85.6125C177.816 85.6125 178.019 85.7414 178.052 85.9452H178.499C178.478 85.5467 178.081 85.2674 177.532 85.2674C176.947 85.2674 176.559 85.5467 176.559 85.9676C176.559 86.3131 176.782 86.5222 177.256 86.6169L177.595 86.6857C177.93 86.755 178.073 86.8532 178.073 87.0203C178.073 87.2145 177.851 87.3543 177.543 87.3543C177.211 87.3543 176.979 87.2211 176.95 87.0137H176.494ZM179.815 87.6788C180.408 87.6788 180.768 87.335 180.768 86.7646C180.768 86.196 180.406 85.8505 179.815 85.8505C179.226 85.8505 178.862 86.1973 178.862 86.7646C178.862 87.335 179.221 87.6788 179.815 87.6788ZM179.815 87.3447C179.502 87.3447 179.322 87.1325 179.322 86.7646C179.322 86.3986 179.502 86.1846 179.815 86.1846C180.127 86.1846 180.306 86.3986 180.306 86.7646C180.306 87.1325 180.128 87.3447 179.815 87.3447ZM181.18 87.6437H181.629V85.2061H181.18V87.6437ZM182.816 87.3592C182.617 87.3592 182.474 87.2706 182.474 87.1228C182.474 86.9799 182.592 86.8997 182.843 86.8852L183.291 86.8593V86.9992C183.291 87.2035 183.088 87.3592 182.816 87.3592ZM182.684 87.6726C182.943 87.6726 183.16 87.5727 183.271 87.4026H183.302V87.6437H183.735V86.4433C183.735 86.0706 183.449 85.8505 182.939 85.8505C182.468 85.8505 182.14 86.0483 182.104 86.3582H182.528C182.57 86.2394 182.711 86.175 182.918 86.175C183.16 86.175 183.291 86.2714 183.291 86.4433V86.591L182.78 86.6187C182.298 86.6441 182.028 86.8273 182.028 87.1456C182.028 87.467 182.302 87.6726 182.684 87.6726ZM184.217 87.6437H184.666V86.62C184.666 86.3613 184.835 86.1973 185.103 86.1973C185.377 86.1973 185.504 86.3324 185.504 86.6007V87.6437H185.953V86.506C185.953 86.0868 185.712 85.8505 185.27 85.8505C184.974 85.8505 184.775 85.9711 184.681 86.1671H184.65V85.8856H184.217V87.6437ZM187.104 87.3592C186.904 87.3592 186.761 87.2706 186.761 87.1228C186.761 86.9799 186.879 86.8997 187.131 86.8852L187.578 86.8593V86.9992C187.578 87.2035 187.376 87.3592 187.104 87.3592ZM186.972 87.6726C187.231 87.6726 187.448 87.5727 187.559 87.4026H187.589V87.6437H188.022V86.4433C188.022 86.0706 187.736 85.8505 187.227 85.8505C186.756 85.8505 186.428 86.0483 186.392 86.3582H186.816C186.857 86.2394 186.999 86.175 187.205 86.175C187.448 86.175 187.578 86.2714 187.578 86.4433V86.591L187.068 86.6187C186.586 86.6441 186.316 86.8273 186.316 87.1456C186.316 87.467 186.589 87.6726 186.972 87.6726Z" fill="#565A75"/>
            <path d="M176.471 91.5026C176.501 91.8493 176.832 92.0747 177.313 92.0747C177.831 92.0747 178.159 91.8397 178.159 91.4705C178.159 91.1755 177.971 91.0137 177.501 90.9094L177.264 90.8537C176.952 90.7827 176.828 90.6923 176.828 90.5349C176.828 90.3315 177.027 90.1978 177.328 90.1978C177.611 90.1978 177.803 90.3201 177.842 90.5266H178.126C178.103 90.2022 177.776 89.9707 177.338 89.9707C176.859 89.9707 176.537 90.2022 176.537 90.5433C176.537 90.8287 176.715 90.9931 177.124 91.0847L177.415 91.1518C177.727 91.2211 177.869 91.3298 177.869 91.5012C177.869 91.7003 177.644 91.8467 177.34 91.8467C177.018 91.8467 176.792 91.713 176.757 91.5026H176.471ZM179.562 89.9707C178.922 89.9707 178.523 90.3762 178.523 91.022C178.523 91.6656 178.912 92.0747 179.562 92.0747C180.209 92.0747 180.602 91.6639 180.602 91.022C180.602 90.3776 180.206 89.9707 179.562 89.9707ZM179.562 90.2022C180.026 90.2022 180.311 90.5196 180.311 91.022C180.311 91.5205 180.027 91.8436 179.562 91.8436C179.091 91.8436 178.813 91.5205 178.813 91.022C178.813 90.5196 179.101 90.2022 179.562 90.2022ZM182.448 91.802H181.355V90.018H181.073V92.0273H182.448V91.802Z" fill="#C4C6D4"/>
            <path d="M203.006 85.0107L203.619 87.209H204.888L205.945 88.6273L206.791 89.1946L207.848 92.0308L208.906 90.3288H209.752L211.443 87.7763H212.924L213.981 86.0744L215.884 87.7763L219.673 86.0744L223.291 88.2866" stroke="#FF497D" stroke-width="1.17079" stroke-linecap="round" stroke-linejoin="round"/>
            <path d="M249.202 85.8838H234.371C233.961 85.8838 233.629 86.1782 233.629 86.5414C233.629 86.9046 233.961 87.1991 234.371 87.1991H249.202C249.612 87.1991 249.944 86.9046 249.944 86.5414C249.944 86.1782 249.612 85.8838 249.202 85.8838Z" fill="#C4C6D4"/>
            <path d="M249.202 89.3916H239.315C238.905 89.3916 238.573 89.686 238.573 90.0492C238.573 90.4124 238.905 90.7069 239.315 90.7069H249.202C249.612 90.7069 249.944 90.4124 249.944 90.0492C249.944 89.686 249.612 89.3916 249.202 89.3916Z" fill="#FF497D"/>
            <g style="mix-blend-mode:darken">
                <path d="M252.333 76.8965H163.329C159.97 76.8965 157.247 79.3114 157.247 82.2903V94.7505C157.247 97.7295 159.97 100.144 163.329 100.144H252.333C255.692 100.144 258.415 97.7295 258.415 94.7505V82.2903C258.415 79.3114 255.692 76.8965 252.333 76.8965Z" stroke="#0D3CF1" stroke-opacity="0.6" stroke-width="1.16995"/>
            </g>
        </g>
        <g filter="url(#filter2_d_0_1)">
            <path d="M288.917 57.8242H199.914C196.691 57.8242 194.079 60.141 194.079 62.9988V75.4591C194.079 78.3169 196.691 80.6337 199.914 80.6337H288.917C292.14 80.6337 294.753 78.3169 294.753 75.4591V62.9988C294.753 60.141 292.14 57.8242 288.917 57.8242Z" fill="white"/>
            <path d="M205.946 72.7345C208.13 72.7345 209.901 71.1642 209.901 69.2271C209.901 67.29 208.13 65.7197 205.946 65.7197C203.761 65.7197 201.991 67.29 201.991 69.2271C201.991 71.1642 203.761 72.7345 205.946 72.7345Z" fill="#FF497D"/>
            <path fill-rule="evenodd" clip-rule="evenodd" d="M206.464 67.4935C206.408 67.467 206.342 67.4685 206.288 67.4975C206.233 67.5268 206.202 67.5762 206.202 67.6329L206.203 67.767C207.152 68.3711 207.681 69.4202 207.233 70.9845H207.699C207.726 70.9845 207.749 70.9687 207.756 70.9459C208.43 68.6284 206.938 67.7175 206.464 67.4935ZM205.073 68.265L204.395 67.6477C204.367 67.6225 204.319 67.6463 204.33 67.6803L204.592 68.5723L205.073 68.265ZM205.464 67.6375C205.604 67.6893 205.783 67.767 205.972 67.8785C206.935 68.4487 207.448 69.4584 206.994 70.9845H205.007C204.973 70.9845 204.946 70.9591 204.949 70.9297C204.97 70.6759 205.047 70.4286 205.177 70.1945C205.23 70.0989 205.212 69.9871 205.131 69.9095C205.051 69.8328 204.927 69.8065 204.815 69.8464L204.457 69.9735C204.454 69.9748 204.451 69.9757 204.448 69.9775C204.372 70.0112 204.278 69.9906 204.23 69.9292L204.061 69.7148C203.902 69.5136 203.956 69.2326 204.181 69.0888L204.186 69.0853C204.28 69.0261 205.405 68.3088 205.425 68.29C205.462 68.254 205.482 68.2045 205.475 68.1545L205.475 68.1536L205.411 67.6732C205.407 67.6472 205.437 67.6274 205.464 67.6375ZM204.389 69.5298C204.423 69.5776 204.495 69.5925 204.549 69.5623C204.604 69.532 204.62 69.4689 204.586 69.4207L204.543 69.3588C204.509 69.3106 204.437 69.2961 204.383 69.3264C204.328 69.3562 204.312 69.4198 204.346 69.468L204.389 69.5298ZM205.332 68.8718C205.368 68.9989 205.497 69.0953 205.655 69.0953C205.806 69.0953 205.938 69.0063 205.977 68.8775C205.977 68.8775 205.977 68.8775 205.977 68.8775C205.977 68.8779 206.001 68.7705 205.895 68.7472C205.833 68.7332 205.77 68.7665 205.754 68.8218C205.728 68.9134 205.582 68.9108 205.557 68.8218C205.541 68.7665 205.478 68.7332 205.416 68.7472C205.354 68.7608 205.316 68.8165 205.332 68.8718Z" fill="white"/>
            <path d="M213.663 66.0337H213.196V67.5537C213.196 68.0599 213.609 68.4102 214.27 68.4102C214.931 68.4102 215.344 68.0599 215.344 67.5537V66.0337H214.877V67.5151C214.877 67.8284 214.658 68.0389 214.27 68.0389C213.882 68.0389 213.663 67.8284 213.663 67.5151V66.0337ZM215.881 68.3523H216.33V67.3287C216.33 67.07 216.499 66.9061 216.767 66.9061C217.041 66.9061 217.168 67.0411 217.168 67.3095V68.3523H217.617V67.2146C217.617 66.7953 217.376 66.5591 216.934 66.5591C216.638 66.5591 216.439 66.6796 216.345 66.8756H216.314V66.5944H215.881V68.3523ZM218.096 68.3523H218.543V66.5944H218.096V68.3523ZM218.319 66.3036C218.467 66.3036 218.587 66.1976 218.587 66.0642C218.587 65.9309 218.467 65.8232 218.319 65.8232C218.172 65.8232 218.05 65.9309 218.05 66.0642C218.05 66.1976 218.172 66.3036 218.319 66.3036ZM218.996 67.0973C218.996 67.3625 219.176 67.5183 219.556 67.5954L219.908 67.6677C220.096 67.7047 220.181 67.7673 220.181 67.867C220.181 67.9972 220.024 68.0853 219.797 68.0853C219.572 68.0853 219.433 68.0082 219.389 67.8782H218.945C218.98 68.198 219.292 68.3874 219.786 68.3874C220.281 68.3874 220.631 68.1625 220.631 67.8252C220.631 67.5665 220.455 67.4219 220.076 67.3464L219.727 67.2757C219.527 67.2355 219.433 67.1745 219.433 67.0749C219.433 66.9479 219.587 66.8612 219.792 66.8612C220.002 66.8612 220.134 66.9399 220.167 67.0636H220.589C220.556 66.7439 220.261 66.5591 219.79 66.5591C219.323 66.5591 218.996 66.7792 218.996 67.0973ZM223.626 66.5944H223.178L222.851 67.9072H222.82L222.436 66.5944H222.006L221.626 67.9072H221.595L221.265 66.5944H220.812L221.349 68.3523H221.816L222.2 67.0861H222.231L222.617 68.3523H223.09L223.626 66.5944ZM224.583 68.0678C224.384 68.0678 224.241 67.9792 224.241 67.8316C224.241 67.6886 224.358 67.6083 224.61 67.5938L225.058 67.5681V67.7079C225.058 67.9122 224.855 68.0678 224.583 68.0678ZM224.451 68.3813C224.71 68.3813 224.927 68.2813 225.038 68.1112H225.068V68.3523H225.501V67.152C225.501 66.7792 225.215 66.5591 224.706 66.5591C224.235 66.5591 223.907 66.7567 223.871 67.0668H224.295C224.337 66.9479 224.478 66.8837 224.684 66.8837C224.927 66.8837 225.058 66.9801 225.058 67.152V67.2998L224.547 67.3271C224.065 67.3528 223.795 67.536 223.795 67.8541C223.795 68.1756 224.068 68.3813 224.451 68.3813ZM227.064 66.5655C226.792 66.5655 226.562 66.686 226.448 66.8853H226.417V66.5944H225.984V68.9372H226.433V68.0853H226.464C226.565 68.2717 226.785 68.3813 227.069 68.3813C227.569 68.3813 227.881 68.034 227.881 67.4733C227.881 66.9094 227.566 66.5655 227.064 66.5655ZM226.922 68.0419C226.616 68.0419 226.426 67.8252 226.424 67.4733C226.426 67.1231 226.618 66.9045 226.924 66.9045C227.232 66.9045 227.419 67.1183 227.419 67.4733C227.419 67.8284 227.234 68.0419 226.922 68.0419Z" fill="#565A75"/>
            <path d="M213.444 70.7275H213.161V72.0463C213.161 72.4751 213.499 72.7842 214.061 72.7842C214.623 72.7842 214.961 72.4751 214.961 72.0463V70.7275H214.678V72.0297C214.678 72.333 214.453 72.5531 214.061 72.5531C213.668 72.5531 213.444 72.333 213.444 72.0297V70.7275ZM215.796 72.7368V71.1787H215.82L217.05 72.7368H217.325V70.7275H217.045V72.2914H217.02L215.791 70.7275H215.516V72.7368H215.796ZM218.166 72.7368V70.7275H217.883V72.7368H218.166Z" fill="#C4C6D4"/>
            <path d="M239.591 69.0499L240.043 67.9398L241.048 69.2489L242.052 67.9398L242.856 69.2489L246.071 68.8122L247.076 67.067L248.885 66.6306L249.889 68.8122L250.693 69.6851H251.899L252.703 72.7396L254.716 65.7197L255.889 66.6306L256.722 68.1577L257.727 68.8122L259.875 67.5197" stroke="#00BA88" stroke-width="1.17079" stroke-linecap="round" stroke-linejoin="round"/>
            <path d="M276.883 67.5158V67.3278H275.86C275.854 67.286 275.851 67.2411 275.851 67.1945C275.851 67.1495 275.854 67.1061 275.858 67.0643H276.883V66.8763H275.905C276.025 66.5582 276.333 66.3895 276.732 66.3895C276.856 66.3895 276.997 66.4007 277.079 66.4184V66.0681C277.001 66.0473 276.847 66.0328 276.724 66.0328C276.07 66.0328 275.564 66.3284 275.427 66.8763H275.064V67.0643H275.394C275.391 67.1061 275.389 67.1495 275.389 67.1945C275.389 67.2394 275.391 67.2844 275.394 67.3278H275.064V67.5158H275.427C275.566 68.0606 276.072 68.3544 276.724 68.3544C276.856 68.3544 276.999 68.3447 277.084 68.3254V67.9738C277.012 67.9913 276.862 67.9992 276.726 67.9992C276.333 67.9992 276.025 67.8323 275.905 67.5158H276.883ZM278.225 68.353H278.692V66.0344H278.227L277.543 66.4586V66.857L278.194 66.4522H278.225V68.353ZM280.289 68.4092C280.954 68.4092 281.349 67.9479 281.349 67.1671C281.349 66.4007 280.928 65.9766 280.303 65.9766C279.734 65.9766 279.332 66.3156 279.332 66.7912C279.332 67.2362 279.694 67.5608 280.193 67.5608C280.499 67.5608 280.747 67.4355 280.87 67.2153H280.901C280.896 67.752 280.676 68.0619 280.294 68.0619C280.07 68.0619 279.89 67.9545 279.834 67.7809H279.369C279.444 68.1601 279.811 68.4092 280.289 68.4092ZM280.305 67.233C280.001 67.233 279.79 67.0466 279.79 66.7783C279.79 66.5196 280.012 66.322 280.307 66.322C280.602 66.322 280.823 66.5228 280.823 66.7864C280.823 67.045 280.607 67.233 280.305 67.233ZM281.954 68.3868C282.126 68.3868 282.244 68.2772 282.244 68.133C282.244 67.9865 282.126 67.8789 281.954 67.8789C281.784 67.8789 281.664 67.9865 281.664 68.133C281.664 68.2772 281.784 68.3868 281.954 68.3868ZM283.576 68.4109C284.201 68.4109 284.572 67.9606 284.572 67.1945C284.572 66.4249 284.196 65.9766 283.576 65.9766C282.955 65.9766 282.578 66.4249 282.578 67.1913C282.578 67.9606 282.949 68.4109 283.576 68.4109ZM283.576 68.0667C283.244 68.0667 283.051 67.7665 283.051 67.1913C283.051 66.6209 283.248 66.322 283.576 66.322C283.904 66.322 284.1 66.6192 284.1 67.1913C284.1 67.7665 283.907 68.0667 283.576 68.0667ZM285.655 68.353H286.122V66.0344H285.657L284.973 66.4586V66.857L285.624 66.4522H285.655V68.353Z" fill="#565A75"/>
            <path d="M274.725 72.0568H275.356V71.8314H274.725V71.2439H274.47V71.8314H273.839V72.0568H274.47V72.6447H274.725V72.0568ZM276.416 72.7363H276.698V70.727H276.417L275.814 71.1115V71.3759L276.39 71.0059H276.416V72.7363ZM278.39 72.7363H278.667V72.3203H278.988V72.0958H278.667V70.727H278.257C277.94 71.1462 277.593 71.6363 277.287 72.0919V72.3203H278.39V72.7363ZM277.575 72.0805C277.822 71.7117 278.119 71.2965 278.373 70.9598H278.392V72.0976H277.575V72.0805ZM279.52 72.7504C279.634 72.7504 279.724 72.6684 279.724 72.5693C279.724 72.4693 279.634 72.3882 279.52 72.3882C279.409 72.3882 279.316 72.4693 279.316 72.5693C279.316 72.6684 279.409 72.7504 279.52 72.7504ZM280.907 72.7824C281.371 72.7824 281.701 72.4943 281.701 72.0905C281.701 71.7003 281.389 71.418 280.957 71.418C280.687 71.418 280.465 71.532 280.354 71.7271H280.329C280.338 71.1812 280.558 70.9024 280.935 70.9024C281.164 70.9024 281.33 71.0072 281.378 71.1935H281.668C281.61 70.8818 281.338 70.6797 280.925 70.6797C280.39 70.6797 280.054 71.0751 280.054 71.7661C280.054 72.4426 280.414 72.7824 280.907 72.7824ZM280.904 72.5623C280.613 72.5623 280.391 72.3593 280.391 72.0905C280.391 71.8244 280.606 71.635 280.907 71.635C281.207 71.635 281.415 71.8244 281.415 72.0989C281.415 72.3619 281.194 72.5623 280.904 72.5623ZM282.898 72.7837C283.408 72.7837 283.699 72.4023 283.699 71.7354C283.699 71.0699 283.403 70.6797 282.898 70.6797C282.392 70.6797 282.095 71.0681 282.095 71.731C282.095 72.3996 282.388 72.7837 282.898 72.7837ZM282.898 72.5653C282.564 72.5653 282.379 72.2685 282.379 71.731C282.379 71.2005 282.567 70.8998 282.898 70.8998C283.23 70.8998 283.415 71.1979 283.415 71.731C283.415 72.2699 283.233 72.5653 282.898 72.5653ZM284.484 71.6363C284.79 71.6363 284.976 71.4596 284.976 71.1628C284.976 70.8704 284.789 70.6911 284.484 70.6911C284.179 70.6911 283.991 70.8704 283.991 71.1628C283.991 71.4583 284.176 71.6363 284.484 71.6363ZM284.484 71.4539C284.326 71.4539 284.234 71.3483 284.234 71.1646C284.234 70.9822 284.326 70.8748 284.484 70.8748C284.641 70.8748 284.732 70.9822 284.732 71.1646C284.732 71.347 284.643 71.4539 284.484 71.4539ZM284.586 72.7363L286.152 70.727H285.896L284.33 72.7363H284.586ZM285.999 72.7561C286.306 72.7561 286.491 72.5794 286.491 72.2826C286.491 71.9901 286.304 71.8104 285.999 71.8104C285.695 71.8104 285.506 71.9901 285.506 72.2826C285.506 72.5776 285.693 72.7561 285.999 72.7561ZM285.999 72.5737C285.841 72.5737 285.751 72.4676 285.751 72.2839C285.751 72.1015 285.841 71.9945 285.999 71.9945C286.158 71.9945 286.247 72.1015 286.247 72.2839C286.247 72.4663 286.158 72.5737 285.999 72.5737Z" fill="#00BA88"/>
            <g style="mix-blend-mode:darken">
                <path d="M288.918 57.6055H199.914C196.555 57.6055 193.832 60.0204 193.832 62.9993V75.4595C193.832 78.4385 196.555 80.8534 199.914 80.8534H288.918C292.277 80.8534 295 78.4385 295 75.4595V62.9993C295 60.0204 292.277 57.6055 288.918 57.6055Z" stroke="#0D3CF1" stroke-opacity="0.6" stroke-width="1.16995"/>
            </g>
        </g>
        <g filter="url(#filter3_d_0_1)">
            <path d="M261.727 24.5039H172.723C169.5 24.5039 166.888 26.8207 166.888 29.6785V42.1388C166.888 44.9966 169.5 47.3134 172.723 47.3134H261.727C264.949 47.3134 267.562 44.9966 267.562 42.1388V29.6785C267.562 26.8207 264.949 24.5039 261.727 24.5039Z" fill="white"/>
            <path d="M178.755 39.4142C180.939 39.4142 182.71 37.8439 182.71 35.9068C182.71 33.9697 180.939 32.3994 178.755 32.3994C176.571 32.3994 174.8 33.9697 174.8 35.9068C174.8 37.8439 176.571 39.4142 178.755 39.4142Z" fill="#C2A633"/>
            <path d="M177.769 34.4463H178.758C179.669 34.4463 180.407 35.1011 180.407 35.9088C180.407 36.7164 179.669 37.3712 178.758 37.3712H177.769V34.4463Z" stroke="white" stroke-width="1.56107"/>
            <path d="M178.758 35.9092H176.779" stroke="white" stroke-width="1.56107" stroke-linejoin="round"/>
            <path d="M186.007 32.7134V35.0319H186.987C187.77 35.0319 188.217 34.6061 188.217 33.8622C188.217 33.1343 187.764 32.7134 186.987 32.7134H186.007ZM186.474 33.0717H186.925C187.438 33.0717 187.741 33.3625 187.741 33.8686C187.741 34.386 187.445 34.6736 186.925 34.6736H186.474V33.0717ZM189.502 35.0672C190.095 35.0672 190.455 34.7234 190.455 34.153C190.455 33.5842 190.093 33.2388 189.502 33.2388C188.913 33.2388 188.549 33.5858 188.549 34.153C188.549 34.7234 188.908 35.0672 189.502 35.0672ZM189.502 34.733C189.189 34.733 189.009 34.521 189.009 34.153C189.009 33.7867 189.189 33.573 189.502 33.573C189.814 33.573 189.993 33.7867 189.993 34.153C189.993 34.521 189.816 34.733 189.502 34.733ZM191.7 34.6816C191.387 34.6816 191.209 34.4695 191.209 34.1337C191.209 33.7979 191.387 33.5842 191.7 33.5842C192.012 33.5842 192.202 33.7979 192.202 34.1337C192.202 34.4695 192.014 34.6816 191.7 34.6816ZM191.7 35.7003C192.278 35.7003 192.644 35.4448 192.644 35.0383V33.2741H192.211V33.5553H192.18C192.072 33.3641 191.836 33.2452 191.566 33.2452C191.061 33.2452 190.747 33.5955 190.747 34.1337C190.747 34.6623 191.059 35.0062 191.559 35.0062C191.834 35.0062 192.05 34.9033 192.164 34.7153H192.195V35.0479C192.195 35.2681 192.016 35.3966 191.708 35.3966C191.461 35.3966 191.302 35.3195 191.273 35.199H190.822C190.858 35.501 191.191 35.7003 191.7 35.7003ZM193.969 33.5553C194.239 33.5553 194.417 33.7224 194.426 33.9827H193.493C193.513 33.7256 193.701 33.5553 193.969 33.5553ZM194.429 34.5483C194.364 34.6784 194.21 34.7507 193.987 34.7507C193.692 34.7507 193.502 34.5676 193.491 34.2751V34.2542H194.875V34.1257C194.875 33.5714 194.536 33.2388 193.971 33.2388C193.397 33.2388 193.04 33.5939 193.04 34.1594C193.04 34.725 193.391 35.0672 193.975 35.0672C194.442 35.0672 194.774 34.868 194.855 34.5483H194.429ZM196.979 33.8654C196.932 33.4959 196.624 33.2388 196.115 33.2388C195.519 33.2388 195.169 33.5778 195.169 34.1482C195.169 34.7266 195.52 35.0672 196.117 35.0672C196.618 35.0672 196.93 34.8198 196.979 34.4519H196.551C196.504 34.635 196.348 34.733 196.115 34.733C195.809 34.733 195.624 34.5177 195.624 34.1482C195.624 33.7835 195.807 33.573 196.115 33.573C196.361 33.573 196.51 33.6951 196.551 33.8654H196.979ZM198.204 35.0672C198.797 35.0672 199.157 34.7234 199.157 34.153C199.157 33.5842 198.795 33.2388 198.204 33.2388C197.615 33.2388 197.251 33.5858 197.251 34.153C197.251 34.7234 197.61 35.0672 198.204 35.0672ZM198.204 34.733C197.891 34.733 197.711 34.521 197.711 34.153C197.711 33.7867 197.891 33.573 198.204 33.573C198.516 33.573 198.695 33.7867 198.695 34.153C198.695 34.521 198.518 34.733 198.204 34.733ZM199.556 35.0319H200.004V33.2741H199.556V35.0319ZM199.779 32.9833C199.928 32.9833 200.047 32.8773 200.047 32.7439C200.047 32.6106 199.928 32.5029 199.779 32.5029C199.632 32.5029 199.511 32.6106 199.511 32.7439C199.511 32.8773 199.632 32.9833 199.779 32.9833ZM200.502 35.0319H200.952V34.0084C200.952 33.7497 201.12 33.5858 201.388 33.5858C201.662 33.5858 201.789 33.7208 201.789 33.9891V35.0319H202.238V33.8943C202.238 33.475 201.997 33.2388 201.555 33.2388C201.26 33.2388 201.06 33.3593 200.966 33.5553H200.935V33.2741H200.502V35.0319Z" fill="#565A75"/>
            <path d="M185.973 37.4077V39.417H186.75C187.424 39.417 187.82 39.0453 187.82 38.4117C187.82 37.7795 187.422 37.4077 186.75 37.4077H185.973ZM186.256 37.6333H186.732C187.234 37.6333 187.531 37.9229 187.531 38.4145C187.531 38.9046 187.237 39.1915 186.732 39.1915H186.256V37.6333ZM189.242 37.3604C188.601 37.3604 188.202 37.7655 188.202 38.4117C188.202 39.055 188.592 39.4644 189.242 39.4644C189.889 39.4644 190.281 39.0536 190.281 38.4117C190.281 37.7669 189.886 37.3604 189.242 37.3604ZM189.242 37.5915C189.705 37.5915 189.991 37.909 189.991 38.4117C189.991 38.9102 189.707 39.2333 189.242 39.2333C188.771 39.2333 188.493 38.9102 188.493 38.4117C188.493 37.909 188.78 37.5915 189.242 37.5915ZM192.654 38.64V38.3949H191.735V38.615H192.372V38.6637C192.372 39.0035 192.098 39.2333 191.693 39.2333C191.237 39.2333 190.955 38.9186 190.955 38.4117C190.955 37.9118 191.242 37.5915 191.691 37.5915C192.027 37.5915 192.255 37.7349 192.352 38.0065H192.639C192.558 37.6082 192.193 37.3604 191.691 37.3604C191.071 37.3604 190.664 37.7767 190.664 38.4117C190.664 39.055 191.064 39.4644 191.691 39.4644C192.27 39.4644 192.654 39.1357 192.654 38.64ZM194.539 39.1915H193.418V38.5008H194.481V38.278H193.418V37.6333H194.539V37.4077H193.135V39.417H194.539V39.1915Z" fill="#C4C6D4"/>
            <path d="M212.4 32.3994L213.012 34.5976H214.282L215.339 36.0157L216.184 36.583L217.242 39.4193L218.299 37.7175H219.145L220.837 35.1648H222.317L223.374 33.463L225.278 35.1648L229.067 33.463L232.684 35.6754" stroke="#FF497D" stroke-width="1.17079" stroke-linecap="round" stroke-linejoin="round"/>
            <path d="M258.596 33.2734H243.765C243.355 33.2734 243.023 33.5679 243.023 33.9311C243.023 34.2943 243.355 34.5887 243.765 34.5887H258.596C259.006 34.5887 259.338 34.2943 259.338 33.9311C259.338 33.5679 259.006 33.2734 258.596 33.2734Z" fill="#C4C6D4"/>
            <path d="M258.596 36.7803H248.708C248.299 36.7803 247.967 37.0747 247.967 37.4379C247.967 37.8011 248.299 38.0955 248.708 38.0955H258.596C259.006 38.0955 259.338 37.8011 259.338 37.4379C259.338 37.0747 259.006 36.7803 258.596 36.7803Z" fill="#FF497D"/>
            <g style="mix-blend-mode:darken">
                <path d="M261.727 24.2852H172.723C169.364 24.2852 166.641 26.7001 166.641 29.679V42.1392C166.641 45.1181 169.364 47.5331 172.723 47.5331H261.727C265.086 47.5331 267.809 45.1181 267.809 42.1392V29.679C267.809 26.7001 265.086 24.2852 261.727 24.2852Z" stroke="#0D3CF1" stroke-opacity="0.6" stroke-width="1.16995"/>
            </g>
        </g>
    </g>
    <defs>
        <filter id="filter0_d_0_1" x="230.325" y="95.1641" width="116.324" height="38.4037" filterUnits="userSpaceOnUse" color-interpolation-filters="sRGB">
            <feFlood flood-opacity="0" result="BackgroundImageFix"/>
            <feColorMatrix in="SourceAlpha" type="matrix" values="0 0 0 0 0 0 0 0 0 0 0 0 0 0 0 0 0 0 127 0" result="hardAlpha"/>
            <feOffset dx="13.9857" dy="13.9857"/>
            <feComposite in2="hardAlpha" operator="out"/>
            <feColorMatrix type="matrix" values="0 0 0 0 0.511528 0 0 0 0 0.557042 0 0 0 0 0.966667 0 0 0 0.24 0"/>
            <feBlend mode="normal" in2="BackgroundImageFix" result="effect1_dropShadow_0_1"/>
            <feBlend mode="normal" in="SourceGraphic" in2="effect1_dropShadow_0_1" result="shape"/>
        </filter>
        <filter id="filter1_d_0_1" x="156.662" y="76.3115" width="116.324" height="38.4037" filterUnits="userSpaceOnUse" color-interpolation-filters="sRGB">
            <feFlood flood-opacity="0" result="BackgroundImageFix"/>
            <feColorMatrix in="SourceAlpha" type="matrix" values="0 0 0 0 0 0 0 0 0 0 0 0 0 0 0 0 0 0 127 0" result="hardAlpha"/>
            <feOffset dx="13.9857" dy="13.9857"/>
            <feComposite in2="hardAlpha" operator="out"/>
            <feColorMatrix type="matrix" values="0 0 0 0 0.511528 0 0 0 0 0.557042 0 0 0 0 0.966667 0 0 0 0.24 0"/>
            <feBlend mode="normal" in2="BackgroundImageFix" result="effect1_dropShadow_0_1"/>
            <feBlend mode="normal" in="SourceGraphic" in2="effect1_dropShadow_0_1" result="shape"/>
        </filter>
        <filter id="filter2_d_0_1" x="193.247" y="57.0205" width="116.324" height="38.4037" filterUnits="userSpaceOnUse" color-interpolation-filters="sRGB">
            <feFlood flood-opacity="0" result="BackgroundImageFix"/>
            <feColorMatrix in="SourceAlpha" type="matrix" values="0 0 0 0 0 0 0 0 0 0 0 0 0 0 0 0 0 0 127 0" result="hardAlpha"/>
            <feOffset dx="13.9857" dy="13.9857"/>
            <feComposite in2="hardAlpha" operator="out"/>
            <feColorMatrix type="matrix" values="0 0 0 0 0.511528 0 0 0 0 0.557042 0 0 0 0 0.966667 0 0 0 0.24 0"/>
            <feBlend mode="normal" in2="BackgroundImageFix" result="effect1_dropShadow_0_1"/>
            <feBlend mode="normal" in="SourceGraphic" in2="effect1_dropShadow_0_1" result="shape"/>
        </filter>
        <filter id="filter3_d_0_1" x="166.056" y="23.7002" width="116.324" height="38.4037" filterUnits="userSpaceOnUse" color-interpolation-filters="sRGB">
            <feFlood flood-opacity="0" result="BackgroundImageFix"/>
            <feColorMatrix in="SourceAlpha" type="matrix" values="0 0 0 0 0 0 0 0 0 0 0 0 0 0 0 0 0 0 127 0" result="hardAlpha"/>
            <feOffset dx="13.9857" dy="13.9857"/>
            <feComposite in2="hardAlpha" operator="out"/>
            <feColorMatrix type="matrix" values="0 0 0 0 0.511528 0 0 0 0 0.557042 0 0 0 0 0.966667 0 0 0 0.24 0"/>
            <feBlend mode="normal" in2="BackgroundImageFix" result="effect1_dropShadow_0_1"/>
            <feBlend mode="normal" in="SourceGraphic" in2="effect1_dropShadow_0_1" result="shape"/>
        </filter>
        <linearGradient id="paint0_linear_0_1" x1="3.07122" y1="331.333" x2="23.4735" y2="331.333" gradientUnits="userSpaceOnUse">
            <stop stop-color="#2B3582"/>
            <stop offset="1" stop-color="#150E42"/>
        </linearGradient>
        <linearGradient id="paint1_linear_0_1" x1="5.1416" y1="321.763" x2="13.416" y2="321.763" gradientUnits="userSpaceOnUse">
            <stop stop-color="#F9B776"/>
            <stop offset="1" stop-color="#F47960"/>
        </linearGradient>
        <linearGradient id="paint2_linear_0_1" x1="46.4592" y1="331.003" x2="78.4712" y2="331.003" gradientUnits="userSpaceOnUse">
            <stop stop-color="#2B3582"/>
            <stop offset="1" stop-color="#150E42"/>
        </linearGradient>
        <linearGradient id="paint3_linear_0_1" x1="46.9462" y1="318.053" x2="55.1752" y2="318.053" gradientUnits="userSpaceOnUse">
            <stop stop-color="#F9B776"/>
            <stop offset="1" stop-color="#F47960"/>
        </linearGradient>
        <linearGradient id="paint4_linear_0_1" x1="0.000163086" y1="244.382" x2="56.0993" y2="244.382" gradientUnits="userSpaceOnUse">
            <stop stop-color="#2B3582"/>
            <stop offset="1" stop-color="#150E42"/>
        </linearGradient>
        <linearGradient id="paint5_linear_0_1" x1="92.9321" y1="11.0114" x2="75.8874" y2="104.387" gradientUnits="userSpaceOnUse">
            <stop stop-color="#53D8FF"/>
            <stop offset="1" stop-color="#3840F7"/>
        </linearGradient>
        <linearGradient id="paint6_linear_0_1" x1="102.001" y1="74.853" x2="132.584" y2="74.853" gradientUnits="userSpaceOnUse">
            <stop stop-color="#F9B776"/>
            <stop offset="1" stop-color="#F47960"/>
        </linearGradient>
        <linearGradient id="paint7_linear_0_1" x1="13.5694" y1="114.225" x2="104.825" y2="177.513" gradientUnits="userSpaceOnUse">
            <stop stop-color="#53D8FF"/>
            <stop offset="1" stop-color="#3840F7"/>
        </linearGradient>
        <linearGradient id="paint8_linear_0_1" x1="171.251" y1="81.5853" x2="104.423" y2="163.957" gradientUnits="userSpaceOnUse">
            <stop stop-color="#F9B776"/>
            <stop offset="1" stop-color="#F47960"/>
        </linearGradient>
        <linearGradient id="paint9_linear_0_1" x1="183.779" y1="91.7486" x2="116.952" y2="174.12" gradientUnits="userSpaceOnUse">
            <stop stop-color="#F9B776"/>
            <stop offset="1" stop-color="#F47960"/>
        </linearGradient>
        <linearGradient id="paint10_linear_0_1" x1="96.9107" y1="31.4375" x2="31.9897" y2="149.62" gradientUnits="userSpaceOnUse">
            <stop stop-color="#F9B776"/>
            <stop offset="1" stop-color="#F47960"/>
        </linearGradient>
        <linearGradient id="paint11_linear_0_1" x1="85.9753" y1="59.4267" x2="52.5619" y2="84.7567" gradientUnits="userSpaceOnUse">
            <stop stop-color="#F9B776"/>
            <stop offset="1" stop-color="#F47960"/>
        </linearGradient>
        <linearGradient id="paint12_linear_0_1" x1="62.6148" y1="39.1337" x2="93.8818" y2="79.0175" gradientUnits="userSpaceOnUse">
            <stop stop-color="#2B3582"/>
            <stop offset="1" stop-color="#150E42"/>
        </linearGradient>
        <linearGradient id="paint13_linear_0_1" x1="81.8598" y1="53.9957" x2="48.446" y2="79.3258" gradientUnits="userSpaceOnUse">
            <stop stop-color="#F9B776"/>
            <stop offset="1" stop-color="#F47960"/>
        </linearGradient>
        <linearGradient id="paint14_linear_0_1" x1="132.454" y1="60.3519" x2="298.672" y2="61.2532" gradientUnits="userSpaceOnUse">
            <stop stop-color="#53D8FF"/>
            <stop offset="1" stop-color="#3840F7"/>
        </linearGradient>
        <linearGradient id="paint15_linear_0_1" x1="165.857" y1="92.3276" x2="173.449" y2="85.3432" gradientUnits="userSpaceOnUse">
            <stop stop-color="#CB4EE8"/>
            <stop offset="1" stop-color="#10F4B1"/>
        </linearGradient>
        <clipPath id="clip0_0_1">
            <rect x="157" y="24.0664" width="132" height="89" rx="6" fill="white"/>
        </clipPath>
    </defs>
</svg>
